<mxfile host="Electron" agent="Mozilla/5.0 (Windows NT 10.0; Win64; x64) AppleWebKit/537.36 (KHTML, like Gecko) draw.io/27.0.9 Chrome/134.0.6998.205 Electron/35.4.0 Safari/537.36" version="27.0.9">
  <diagram name="Page-1" id="MFtS-wfUrE-uv3Bes-Vf">
    <mxGraphModel dx="714" dy="479" grid="1" gridSize="10" guides="1" tooltips="1" connect="1" arrows="1" fold="1" page="1" pageScale="1" pageWidth="850" pageHeight="1100" math="0" shadow="0">
      <root>
        <mxCell id="0" />
        <mxCell id="1" parent="0" />
        <mxCell id="8ESEtxbHd65J42GtbJXJ-2" value="" style="rounded=0;whiteSpace=wrap;html=1;dashed=1;" parent="1" vertex="1">
          <mxGeometry x="10" y="120" width="130" height="420" as="geometry" />
        </mxCell>
        <mxCell id="8ESEtxbHd65J42GtbJXJ-4" value="" style="rounded=0;whiteSpace=wrap;html=1;dashed=1;fontColor=light-dark(#ffffff, #dadece);" parent="1" vertex="1">
          <mxGeometry x="170" y="120" width="570" height="410" as="geometry" />
        </mxCell>
        <mxCell id="8ESEtxbHd65J42GtbJXJ-3" value="SOURCE" style="text;strokeColor=none;align=center;fillColor=none;html=1;verticalAlign=middle;whiteSpace=wrap;rounded=0;" parent="1" vertex="1">
          <mxGeometry x="45" y="80" width="60" height="30" as="geometry" />
        </mxCell>
        <mxCell id="8ESEtxbHd65J42GtbJXJ-5" value="DATA WAREHOUSE" style="text;strokeColor=none;align=center;fillColor=none;html=1;verticalAlign=middle;whiteSpace=wrap;rounded=0;" parent="1" vertex="1">
          <mxGeometry x="380" y="80" width="120" height="30" as="geometry" />
        </mxCell>
        <mxCell id="8ESEtxbHd65J42GtbJXJ-6" value="" style="rounded=0;whiteSpace=wrap;html=1;dashed=1;strokeColor=#FFB570;" parent="1" vertex="1">
          <mxGeometry x="200" y="170" width="150" height="340" as="geometry" />
        </mxCell>
        <mxCell id="8ESEtxbHd65J42GtbJXJ-7" value="" style="rounded=0;whiteSpace=wrap;html=1;dashed=1;" parent="1" vertex="1">
          <mxGeometry x="780" y="120" width="140" height="410" as="geometry" />
        </mxCell>
        <mxCell id="8ESEtxbHd65J42GtbJXJ-8" value="CONSUME" style="text;strokeColor=none;align=center;fillColor=none;html=1;verticalAlign=middle;whiteSpace=wrap;rounded=0;" parent="1" vertex="1">
          <mxGeometry x="780" y="80" width="120" height="30" as="geometry" />
        </mxCell>
        <mxCell id="8ESEtxbHd65J42GtbJXJ-9" style="edgeStyle=orthogonalEdgeStyle;rounded=0;orthogonalLoop=1;jettySize=auto;html=1;exitX=0.5;exitY=1;exitDx=0;exitDy=0;" parent="1" source="8ESEtxbHd65J42GtbJXJ-6" target="8ESEtxbHd65J42GtbJXJ-6" edge="1">
          <mxGeometry relative="1" as="geometry" />
        </mxCell>
        <mxCell id="8ESEtxbHd65J42GtbJXJ-10" value="BRONZE LAYER" style="text;strokeColor=#6D1F00;align=center;fillColor=#a0522d;html=1;verticalAlign=middle;whiteSpace=wrap;rounded=0;fontColor=light-dark(#FFFFFF,#000000);fontFamily=Garamond;fontStyle=1" parent="1" vertex="1">
          <mxGeometry x="210" y="140" width="120" height="20" as="geometry" />
        </mxCell>
        <mxCell id="8ESEtxbHd65J42GtbJXJ-11" style="edgeStyle=orthogonalEdgeStyle;rounded=0;orthogonalLoop=1;jettySize=auto;html=1;exitX=0.5;exitY=1;exitDx=0;exitDy=0;" parent="1" source="8ESEtxbHd65J42GtbJXJ-10" target="8ESEtxbHd65J42GtbJXJ-10" edge="1">
          <mxGeometry relative="1" as="geometry" />
        </mxCell>
        <mxCell id="8ESEtxbHd65J42GtbJXJ-13" value="" style="rounded=0;whiteSpace=wrap;html=1;dashed=1;strokeColor=#CCCCCC;" parent="1" vertex="1">
          <mxGeometry x="390" y="170" width="140" height="340" as="geometry" />
        </mxCell>
        <mxCell id="8ESEtxbHd65J42GtbJXJ-14" value="SILVER LAYER" style="text;strokeColor=#9673a6;align=center;fillColor=#e1d5e7;html=1;verticalAlign=middle;whiteSpace=wrap;rounded=0;fontFamily=Garamond;fontStyle=1;fontColor=#000000;" parent="1" vertex="1">
          <mxGeometry x="400" y="140" width="120" height="20" as="geometry" />
        </mxCell>
        <mxCell id="8ESEtxbHd65J42GtbJXJ-15" value="" style="rounded=0;whiteSpace=wrap;html=1;dashed=1;strokeColor=#FFE599;" parent="1" vertex="1">
          <mxGeometry x="560" y="170" width="150" height="340" as="geometry" />
        </mxCell>
        <mxCell id="8ESEtxbHd65J42GtbJXJ-17" value="GOLD LAYER" style="text;strokeColor=#FFB570;align=center;fillColor=#fff2cc;html=1;verticalAlign=middle;rounded=0;fontFamily=Garamond;fontStyle=1;fillStyle=auto;whiteSpace=wrap;labelBorderColor=default;fontColor=#000000;" parent="1" vertex="1">
          <mxGeometry x="576.5" y="140" width="117" height="20" as="geometry" />
        </mxCell>
        <mxCell id="8ESEtxbHd65J42GtbJXJ-20" value="" style="endArrow=none;html=1;rounded=0;entryX=0.994;entryY=0.632;entryDx=0;entryDy=0;entryPerimeter=0;exitX=-0.003;exitY=0.567;exitDx=0;exitDy=0;exitPerimeter=0;" parent="1" source="8ESEtxbHd65J42GtbJXJ-2" target="8ESEtxbHd65J42GtbJXJ-2" edge="1">
          <mxGeometry width="50" height="50" relative="1" as="geometry">
            <mxPoint x="60" y="360" as="sourcePoint" />
            <mxPoint x="110" y="310" as="targetPoint" />
            <Array as="points">
              <mxPoint x="20" y="360" />
              <mxPoint x="139" y="360" />
            </Array>
          </mxGeometry>
        </mxCell>
        <mxCell id="8ESEtxbHd65J42GtbJXJ-21" value="" style="endArrow=none;html=1;rounded=0;" parent="1" edge="1">
          <mxGeometry width="50" height="50" relative="1" as="geometry">
            <mxPoint x="215" y="280" as="sourcePoint" />
            <mxPoint x="335" y="280" as="targetPoint" />
            <Array as="points">
              <mxPoint x="200" y="280" />
              <mxPoint x="265" y="280" />
              <mxPoint x="295" y="280" />
              <mxPoint x="335" y="280" />
              <mxPoint x="350" y="280" />
            </Array>
          </mxGeometry>
        </mxCell>
        <mxCell id="8ESEtxbHd65J42GtbJXJ-23" value="" style="endArrow=none;html=1;rounded=0;" parent="1" edge="1">
          <mxGeometry width="50" height="50" relative="1" as="geometry">
            <mxPoint x="390" y="280" as="sourcePoint" />
            <mxPoint x="510" y="280" as="targetPoint" />
            <Array as="points">
              <mxPoint x="390" y="280" />
              <mxPoint x="440" y="280" />
              <mxPoint x="470" y="280" />
              <mxPoint x="510" y="280" />
              <mxPoint x="530" y="280" />
            </Array>
          </mxGeometry>
        </mxCell>
        <mxCell id="8ESEtxbHd65J42GtbJXJ-40" style="edgeStyle=orthogonalEdgeStyle;rounded=0;orthogonalLoop=1;jettySize=auto;html=1;exitX=0;exitY=0;exitDx=24.000000000000004;exitDy=10.500000000000002;exitPerimeter=0;" parent="1" source="8ESEtxbHd65J42GtbJXJ-25" edge="1">
          <mxGeometry relative="1" as="geometry">
            <mxPoint x="150" y="261" as="targetPoint" />
          </mxGeometry>
        </mxCell>
        <mxCell id="8ESEtxbHd65J42GtbJXJ-25" value="" style="shape=singleArrow;whiteSpace=wrap;html=1;labelBackgroundColor=light-dark(default, #bfb0b0);fillColor=#dae8fc;strokeColor=#6c8ebf;" parent="1" vertex="1">
          <mxGeometry x="140" y="250" width="60" height="30" as="geometry" />
        </mxCell>
        <mxCell id="8ESEtxbHd65J42GtbJXJ-26" value="" style="shape=singleArrow;whiteSpace=wrap;html=1;fillColor=#dae8fc;strokeColor=#6c8ebf;" parent="1" vertex="1">
          <mxGeometry x="350" y="250" width="40" height="30" as="geometry" />
        </mxCell>
        <mxCell id="8ESEtxbHd65J42GtbJXJ-31" value="" style="shape=datastore;whiteSpace=wrap;html=1;strokeColor=#F19C99;" parent="1" vertex="1">
          <mxGeometry x="245" y="180" width="60" height="60" as="geometry" />
        </mxCell>
        <mxCell id="8ESEtxbHd65J42GtbJXJ-32" value="" style="shape=datastore;whiteSpace=wrap;html=1;strokeColor=#CCCCCC;" parent="1" vertex="1">
          <mxGeometry x="430" y="180" width="60" height="60" as="geometry" />
        </mxCell>
        <mxCell id="8ESEtxbHd65J42GtbJXJ-33" value="" style="shape=datastore;whiteSpace=wrap;html=1;strokeColor=#FFE599;" parent="1" vertex="1">
          <mxGeometry x="605" y="180" width="60" height="60" as="geometry" />
        </mxCell>
        <mxCell id="8ESEtxbHd65J42GtbJXJ-34" value="RAW DATA" style="text;strokeColor=none;align=center;fillColor=none;html=1;verticalAlign=middle;whiteSpace=wrap;rounded=0;fontSize=9;" parent="1" vertex="1">
          <mxGeometry x="235" y="250" width="70" height="30" as="geometry" />
        </mxCell>
        <mxCell id="8ESEtxbHd65J42GtbJXJ-35" value="CLEANED,STANDARDIZED DATA" style="text;strokeColor=none;align=center;fillColor=none;html=1;verticalAlign=middle;whiteSpace=wrap;rounded=0;fontSize=8;" parent="1" vertex="1">
          <mxGeometry x="400" y="250" width="120" height="20" as="geometry" />
        </mxCell>
        <mxCell id="8ESEtxbHd65J42GtbJXJ-36" value="BUSINESS-READY DATA" style="text;strokeColor=none;align=center;fillColor=none;html=1;verticalAlign=middle;whiteSpace=wrap;rounded=0;fontSize=9;" parent="1" vertex="1">
          <mxGeometry x="578.5" y="250" width="110" height="30" as="geometry" />
        </mxCell>
        <mxCell id="8ESEtxbHd65J42GtbJXJ-37" value="&lt;font&gt;OBJECT TYPE: TABLES&lt;/font&gt;&lt;div&gt;&lt;span style=&quot;background-color: transparent; color: light-dark(rgb(0, 0, 0), rgb(255, 255, 255));&quot;&gt;&lt;br&gt;&lt;/span&gt;&lt;/div&gt;&lt;div&gt;&lt;span style=&quot;background-color: transparent; color: light-dark(rgb(0, 0, 0), rgb(255, 255, 255));&quot;&gt;&lt;br&gt;&lt;/span&gt;&lt;/div&gt;&lt;div style=&quot;text-align: left;&quot;&gt;&lt;span style=&quot;background-color: transparent; color: light-dark(rgb(0, 0, 0), rgb(255, 255, 255));&quot;&gt;LOAD:&lt;/span&gt;&lt;/div&gt;&lt;div&gt;&lt;span style=&quot;background-color: transparent; color: light-dark(rgb(0, 0, 0), rgb(255, 255, 255));&quot;&gt;&lt;br&gt;&lt;/span&gt;&lt;/div&gt;&lt;div style=&quot;text-align: left;&quot;&gt;&lt;ul&gt;&lt;li&gt;&lt;font&gt;&amp;nbsp;BATCH PROCESSING&lt;/font&gt;&lt;/li&gt;&lt;li&gt;.FULL LOAD&lt;/li&gt;&lt;li&gt;&amp;nbsp;TRUNCATE &amp;amp; INSERT&lt;/li&gt;&lt;/ul&gt;&lt;/div&gt;&lt;div style=&quot;text-align: left;&quot;&gt;&lt;br&gt;&lt;/div&gt;&lt;div&gt;&lt;br&gt;&lt;/div&gt;&lt;div style=&quot;text-align: left;&quot;&gt;NO TRANSFORMATION&lt;/div&gt;&lt;div style=&quot;text-align: left;&quot;&gt;&lt;br&gt;&lt;/div&gt;&lt;div style=&quot;text-align: left;&quot;&gt;DATA MODEL: NONE (AS-IS)&lt;/div&gt;" style="text;strokeColor=none;align=center;fillColor=none;html=1;verticalAlign=middle;whiteSpace=wrap;rounded=0;fontSize=8;fontStyle=1" parent="1" vertex="1">
          <mxGeometry x="205" y="290" width="140" height="170" as="geometry" />
        </mxCell>
        <mxCell id="8ESEtxbHd65J42GtbJXJ-38" value="&lt;font&gt;OBJECT TYPE: TABLES&lt;/font&gt;&lt;div&gt;&lt;br&gt;&lt;div style=&quot;text-align: left;&quot;&gt;&lt;span style=&quot;background-color: transparent; color: light-dark(rgb(0, 0, 0), rgb(255, 255, 255));&quot;&gt;LOAD:&lt;/span&gt;&lt;/div&gt;&lt;div&gt;&lt;span style=&quot;background-color: transparent; color: light-dark(rgb(0, 0, 0), rgb(255, 255, 255));&quot;&gt;&lt;br&gt;&lt;/span&gt;&lt;/div&gt;&lt;div style=&quot;text-align: left;&quot;&gt;&lt;ul&gt;&lt;li&gt;&lt;font&gt;&amp;nbsp;BATCH PROCESSING&lt;/font&gt;&lt;/li&gt;&lt;li&gt;&amp;nbsp;FULL LOAD&lt;/li&gt;&lt;li&gt;&amp;nbsp;TRUNCATE &amp;amp; INSERT&lt;/li&gt;&lt;/ul&gt;&lt;/div&gt;&lt;div style=&quot;text-align: left;&quot;&gt;&lt;br&gt;&lt;/div&gt;&lt;div&gt;&lt;br&gt;&lt;/div&gt;&lt;div style=&quot;text-align: left;&quot;&gt;TRANSFORMATION:&lt;/div&gt;&lt;div style=&quot;text-align: left;&quot;&gt;&lt;ul&gt;&lt;li&gt;DATA CLEANING&lt;/li&gt;&lt;li&gt;DATA STANDARIZATION&lt;/li&gt;&lt;li&gt;DATA NORMALIZATION&lt;/li&gt;&lt;li&gt;DERIVED COLUMNS&lt;/li&gt;&lt;li&gt;DATA ENRICHMENT&amp;nbsp;&lt;/li&gt;&lt;/ul&gt;&lt;/div&gt;&lt;div style=&quot;text-align: left;&quot;&gt;&lt;br&gt;&lt;/div&gt;&lt;div style=&quot;text-align: left;&quot;&gt;DATA MODEL: NONE (AS-IS)&lt;/div&gt;&lt;/div&gt;" style="text;strokeColor=none;align=center;fillColor=none;html=1;verticalAlign=middle;whiteSpace=wrap;rounded=0;fontSize=8;fontStyle=1" parent="1" vertex="1">
          <mxGeometry x="380" y="325" width="160" height="150" as="geometry" />
        </mxCell>
        <mxCell id="8ESEtxbHd65J42GtbJXJ-39" value="&lt;font&gt;OBJECT TYPE: VIEWS&lt;/font&gt;&lt;div&gt;&lt;span style=&quot;background-color: transparent; color: light-dark(rgb(0, 0, 0), rgb(255, 255, 255));&quot;&gt;&lt;br&gt;&lt;/span&gt;&lt;/div&gt;&lt;div&gt;&lt;span style=&quot;background-color: transparent; color: light-dark(rgb(0, 0, 0), rgb(255, 255, 255));&quot;&gt;&lt;br&gt;&lt;/span&gt;&lt;/div&gt;&lt;div style=&quot;text-align: left;&quot;&gt;NO LOAD&lt;/div&gt;&lt;div style=&quot;text-align: left;&quot;&gt;&lt;br&gt;&lt;/div&gt;&lt;div&gt;&lt;br&gt;&lt;/div&gt;&lt;div style=&quot;text-align: left;&quot;&gt;TRANSFORMATION:&lt;/div&gt;&lt;div style=&quot;text-align: left;&quot;&gt;&lt;ul&gt;&lt;li&gt;DATA INTEGRATION&lt;/li&gt;&lt;li&gt;AGGREGATIONS&lt;/li&gt;&lt;li&gt;BUSINESS LOGICS&lt;/li&gt;&lt;/ul&gt;&lt;/div&gt;&lt;div style=&quot;text-align: left;&quot;&gt;&lt;br&gt;&lt;/div&gt;&lt;div style=&quot;text-align: left;&quot;&gt;DATA MODEL:&amp;nbsp;&lt;/div&gt;&lt;div style=&quot;text-align: left;&quot;&gt;&lt;br&gt;&lt;/div&gt;&lt;div style=&quot;text-align: left;&quot;&gt;&lt;ul&gt;&lt;li&gt;STAR SCHEMA&lt;/li&gt;&lt;li&gt;FLAT TABLE&lt;/li&gt;&lt;li&gt;AGGREGATED TABLE&lt;/li&gt;&lt;/ul&gt;&lt;/div&gt;" style="text;strokeColor=none;align=center;fillColor=none;html=1;verticalAlign=middle;whiteSpace=wrap;rounded=0;fontSize=8;fontStyle=1" parent="1" vertex="1">
          <mxGeometry x="560" y="315" width="160" height="160" as="geometry" />
        </mxCell>
        <mxCell id="8ESEtxbHd65J42GtbJXJ-42" style="edgeStyle=orthogonalEdgeStyle;rounded=0;orthogonalLoop=1;jettySize=auto;html=1;exitX=0.75;exitY=0;exitDx=0;exitDy=0;entryX=0.5;entryY=0;entryDx=0;entryDy=0;" parent="1" source="8ESEtxbHd65J42GtbJXJ-34" target="8ESEtxbHd65J42GtbJXJ-34" edge="1">
          <mxGeometry relative="1" as="geometry" />
        </mxCell>
        <mxCell id="8ESEtxbHd65J42GtbJXJ-45" value="" style="shape=singleArrow;whiteSpace=wrap;html=1;fillColor=#dae8fc;strokeColor=#6c8ebf;" parent="1" vertex="1">
          <mxGeometry x="530" y="250" width="40" height="30" as="geometry" />
        </mxCell>
        <mxCell id="8ESEtxbHd65J42GtbJXJ-46" value="" style="endArrow=none;html=1;rounded=0;" parent="1" edge="1">
          <mxGeometry width="50" height="50" relative="1" as="geometry">
            <mxPoint x="595" y="280" as="sourcePoint" />
            <mxPoint x="715" y="280" as="targetPoint" />
            <Array as="points">
              <mxPoint x="555" y="280" />
              <mxPoint x="595" y="280" />
              <mxPoint x="645" y="280" />
            </Array>
          </mxGeometry>
        </mxCell>
        <mxCell id="8ESEtxbHd65J42GtbJXJ-47" style="edgeStyle=orthogonalEdgeStyle;rounded=0;orthogonalLoop=1;jettySize=auto;html=1;exitX=0.75;exitY=1;exitDx=0;exitDy=0;" parent="1" source="8ESEtxbHd65J42GtbJXJ-10" target="8ESEtxbHd65J42GtbJXJ-10" edge="1">
          <mxGeometry relative="1" as="geometry" />
        </mxCell>
        <mxCell id="8ESEtxbHd65J42GtbJXJ-48" value="OBJECT TYPE :CSV&amp;nbsp; FILES&lt;div&gt;&lt;br&gt;&lt;/div&gt;&lt;div&gt;INTERFACE :FILES IN FOLDER&lt;/div&gt;" style="text;strokeColor=none;align=center;fillColor=none;html=1;verticalAlign=middle;whiteSpace=wrap;rounded=0;fontSize=8;fontStyle=1" parent="1" vertex="1">
          <mxGeometry x="15" y="365" width="120" height="135" as="geometry" />
        </mxCell>
        <mxCell id="8ESEtxbHd65J42GtbJXJ-52" value="" style="group" parent="1" vertex="1" connectable="0">
          <mxGeometry x="60" y="190" width="38.730000000000004" height="70" as="geometry" />
        </mxCell>
        <mxCell id="8ESEtxbHd65J42GtbJXJ-50" value="" style="image;aspect=fixed;html=1;points=[];align=center;fontSize=12;image=img/lib/azure2/general/Folder_Blank.svg;" parent="8ESEtxbHd65J42GtbJXJ-52" vertex="1">
          <mxGeometry width="36.96" height="30" as="geometry" />
        </mxCell>
        <mxCell id="8ESEtxbHd65J42GtbJXJ-51" value="" style="verticalLabelPosition=bottom;html=1;verticalAlign=top;strokeWidth=1;align=center;outlineConnect=0;dashed=0;outlineConnect=0;shape=mxgraph.aws3d.file;aspect=fixed;strokeColor=#292929;fillColor=#FFFFFF;" parent="8ESEtxbHd65J42GtbJXJ-52" vertex="1">
          <mxGeometry x="21.28" y="10" width="17.45" height="40" as="geometry" />
        </mxCell>
        <mxCell id="8ESEtxbHd65J42GtbJXJ-57" value="CRM" style="text;strokeColor=none;align=center;fillColor=none;html=1;verticalAlign=middle;whiteSpace=wrap;rounded=0;" parent="8ESEtxbHd65J42GtbJXJ-52" vertex="1">
          <mxGeometry x="-21.269999999999996" y="40" width="60" height="30" as="geometry" />
        </mxCell>
        <mxCell id="8ESEtxbHd65J42GtbJXJ-53" value="" style="group" parent="1" vertex="1" connectable="0">
          <mxGeometry x="60" y="290" width="38.730000000000004" height="50" as="geometry" />
        </mxCell>
        <mxCell id="8ESEtxbHd65J42GtbJXJ-54" value="" style="image;aspect=fixed;html=1;points=[];align=center;fontSize=12;image=img/lib/azure2/general/Folder_Blank.svg;" parent="8ESEtxbHd65J42GtbJXJ-53" vertex="1">
          <mxGeometry width="36.96" height="30" as="geometry" />
        </mxCell>
        <mxCell id="8ESEtxbHd65J42GtbJXJ-55" value="" style="verticalLabelPosition=bottom;html=1;verticalAlign=top;strokeWidth=1;align=center;outlineConnect=0;dashed=0;outlineConnect=0;shape=mxgraph.aws3d.file;aspect=fixed;strokeColor=#292929;fillColor=#FFFFFF;" parent="8ESEtxbHd65J42GtbJXJ-53" vertex="1">
          <mxGeometry x="21.28" y="10" width="17.45" height="40" as="geometry" />
        </mxCell>
        <mxCell id="8ESEtxbHd65J42GtbJXJ-59" value="ERP" style="text;strokeColor=none;align=center;fillColor=none;html=1;verticalAlign=middle;whiteSpace=wrap;rounded=0;" parent="1" vertex="1">
          <mxGeometry x="45" y="325" width="60" height="30" as="geometry" />
        </mxCell>
        <mxCell id="8ESEtxbHd65J42GtbJXJ-61" value="" style="shape=singleArrow;whiteSpace=wrap;html=1;fillColor=#dae8fc;strokeColor=#6c8ebf;" parent="1" vertex="1">
          <mxGeometry x="740" y="250" width="40" height="30" as="geometry" />
        </mxCell>
        <mxCell id="8ESEtxbHd65J42GtbJXJ-62" value="" style="image;aspect=fixed;html=1;points=[];align=center;fontSize=12;image=img/lib/azure2/databases/Azure_Database_PostgreSQL_Server.svg;" parent="1" vertex="1">
          <mxGeometry x="177.5" y="80" width="22.5" height="30" as="geometry" />
        </mxCell>
        <mxCell id="8ESEtxbHd65J42GtbJXJ-63" value="" style="image;aspect=fixed;html=1;points=[];align=center;fontSize=12;image=img/lib/azure2/analytics/Power_BI_Embedded.svg;" parent="1" vertex="1">
          <mxGeometry x="825" y="170" width="37.5" height="50" as="geometry" />
        </mxCell>
        <mxCell id="8ESEtxbHd65J42GtbJXJ-64" value="POWER BI" style="text;strokeColor=none;align=center;fillColor=none;html=1;verticalAlign=middle;whiteSpace=wrap;rounded=0;fontSize=9;" parent="1" vertex="1">
          <mxGeometry x="790" y="230" width="110" height="30" as="geometry" />
        </mxCell>
        <mxCell id="8ESEtxbHd65J42GtbJXJ-65" value="" style="sketch=0;points=[[0,0,0],[0.25,0,0],[0.5,0,0],[0.75,0,0],[1,0,0],[0,1,0],[0.25,1,0],[0.5,1,0],[0.75,1,0],[1,1,0],[0,0.25,0],[0,0.5,0],[0,0.75,0],[1,0.25,0],[1,0.5,0],[1,0.75,0]];outlineConnect=0;fontColor=#232F3E;fillColor=#01A88D;strokeColor=#ffffff;dashed=0;verticalLabelPosition=bottom;verticalAlign=top;align=center;html=1;fontSize=12;fontStyle=0;aspect=fixed;shape=mxgraph.aws4.resourceIcon;resIcon=mxgraph.aws4.neuron_ml_sdk;" parent="1" vertex="1">
          <mxGeometry x="825" y="400" width="45" height="45" as="geometry" />
        </mxCell>
        <mxCell id="8ESEtxbHd65J42GtbJXJ-66" value="MACHINE LEARNING" style="text;strokeColor=none;align=center;fillColor=none;html=1;verticalAlign=middle;whiteSpace=wrap;rounded=0;fontSize=9;" parent="1" vertex="1">
          <mxGeometry x="795" y="450" width="110" height="30" as="geometry" />
        </mxCell>
        <mxCell id="8ESEtxbHd65J42GtbJXJ-69" value="" style="points=[];aspect=fixed;html=1;align=center;shadow=0;dashed=0;fillColor=#FF6A00;strokeColor=none;shape=mxgraph.alibaba_cloud.opensearch;" parent="1" vertex="1">
          <mxGeometry x="825" y="292.5" width="45.22" height="45" as="geometry" />
        </mxCell>
        <mxCell id="8ESEtxbHd65J42GtbJXJ-70" value="SQL QUERIES" style="text;strokeColor=none;align=center;fillColor=none;html=1;verticalAlign=middle;whiteSpace=wrap;rounded=0;fontSize=9;" parent="1" vertex="1">
          <mxGeometry x="792.61" y="350" width="110" height="30" as="geometry" />
        </mxCell>
        <mxCell id="8ESEtxbHd65J42GtbJXJ-75" value="POSTGRE SQL" style="text;strokeColor=none;align=center;fillColor=none;html=1;verticalAlign=middle;whiteSpace=wrap;rounded=0;fontSize=9;" parent="1" vertex="1">
          <mxGeometry x="205" y="90" width="70" height="30" as="geometry" />
        </mxCell>
      </root>
    </mxGraphModel>
  </diagram>
</mxfile>
